<?xml version="1.0" encoding="UTF-8" standalone="no"?>
<!-- Created with Inkscape (http://www.inkscape.org/) -->

<svg
   xmlns:dc="http://purl.org/dc/elements/1.1/"
   xmlns:cc="http://creativecommons.org/ns#"
   xmlns:rdf="http://www.w3.org/1999/02/22-rdf-syntax-ns#"
   xmlns:svg="http://www.w3.org/2000/svg"
   xmlns="http://www.w3.org/2000/svg"
   xmlns:xlink="http://www.w3.org/1999/xlink"
   xmlns:sodipodi="http://sodipodi.sourceforge.net/DTD/sodipodi-0.dtd"
   xmlns:inkscape="http://www.inkscape.org/namespaces/inkscape"
   width="210"
   height="210"
   id="svg4471"
   version="1.1"
   inkscape:version="0.48.5 r10040"
   sodipodi:docname="logo.svg">
  <defs
     id="defs4473">
    <linearGradient
       id="linearGradient5362">
      <stop
         style="stop-color:#dcdcdc;stop-opacity:1;"
         offset="0"
         id="stop5364" />
      <stop
         style="stop-color:#f1f1f1;stop-opacity:1;"
         offset="1"
         id="stop5366" />
    </linearGradient>
    <linearGradient
       inkscape:collect="always"
       xlink:href="#linearGradient5362"
       id="linearGradient5360"
       x1="342.43274"
       y1="382.48886"
       x2="340.91751"
       y2="354.20459"
       gradientUnits="userSpaceOnUse"
       gradientTransform="matrix(1.2926467,0,0,1.2926467,-94.992301,-128.52848)" />
  </defs>
  <sodipodi:namedview
     id="base"
     pagecolor="#ffffff"
     bordercolor="#666666"
     borderopacity="1.0"
     inkscape:pageopacity="0.0"
     inkscape:pageshadow="2"
     inkscape:zoom="7.9195959"
     inkscape:cx="-3.0767742"
     inkscape:cy="134.4949"
     inkscape:document-units="px"
     inkscape:current-layer="layer1"
     showgrid="false"
     fit-margin-top="0"
     fit-margin-left="0"
     fit-margin-right="0"
     fit-margin-bottom="0"
     inkscape:window-width="1366"
     inkscape:window-height="705"
     inkscape:window-x="-8"
     inkscape:window-y="-8"
     inkscape:window-maximized="1"
     inkscape:snap-page="true" />
  <metadata
     id="metadata4476">
    <rdf:RDF>
      <cc:Work
         rdf:about="">
        <dc:format>image/svg+xml</dc:format>
        <dc:type
           rdf:resource="http://purl.org/dc/dcmitype/StillImage" />
        <dc:title />
      </cc:Work>
    </rdf:RDF>
  </metadata>
  <g
     inkscape:label="Vrstva 1"
     inkscape:groupmode="layer"
     id="layer1"
     transform="translate(-324.25,-229.5625)">
    <path
       id="path3577"
       style="fill:url(#linearGradient5360);fill-opacity:1;fill-rule:evenodd;stroke:none"
       d="m 429.45316,229.48242 c 57.90024,0 104.85547,46.95524 104.85547,104.85547 0,57.90023 -46.95523,104.85545 -104.85547,104.85545 -57.9007,0 -104.85594,-46.95522 -104.85594,-104.85545 0,-57.90023 46.95524,-104.85547 104.85594,-104.85547 z"
       inkscape:connector-curvature="0" />
    <path
       id="path3579"
       style="fill:#ffffff;fill-opacity:1;fill-rule:evenodd;stroke:#ec008c;stroke-width:0.9160018;stroke-linecap:butt;stroke-linejoin:miter;stroke-miterlimit:22.92558479;stroke-opacity:1;stroke-dasharray:none"
       d="m 458.42639,314.42063 17.37059,0 0,9.97212 -17.37059,0 0,-9.97212 z"
       inkscape:connector-curvature="0" />
    <path
       id="path3581"
       style="fill:#f15e4a;fill-opacity:1;fill-rule:evenodd;stroke:none"
       d="m 515.0511,323.84575 c 0.37729,3.31332 0.57846,6.68194 0.57846,10.09783 0,14.87813 -3.68533,28.88493 -10.17556,41.14241 l -151.94544,0 c -6.49071,-12.25748 -10.1754,-26.26428 -10.1754,-41.14241 0,-3.41589 0.20053,-6.78451 0.57799,-10.09783 l 171.13995,0 z"
       inkscape:connector-curvature="0" />
    <g
       transform="matrix(0.54313782,0,0,-0.54312166,-51.472961,1430.1773)"
       id="g3583">
      <path
         id="path3585"
         style="fill:none;stroke:#ffffff;stroke-width:5.80989981;stroke-linecap:round;stroke-linejoin:round;stroke-miterlimit:22.92558479;stroke-opacity:1;stroke-dasharray:none"
         d="m 826.8021,2090.9906 c 0,6.4587 3.0739,18.7197 8.6394,18.7197 l 0.4799,0 c 4.828,0 10.6418,-5.2798 15.84,-5.2798 1.1223,0 2.3998,0.6239 2.3998,1.9201 0,5.4916 -2.8426,10.0194 -6.8247,13.8141 -2.9591,2.8208 -7.1994,4.4258 -12.8554,4.4258 -19.171,0 -23.0998,-9.4703 -25.5464,-25.8129 -2.313,-15.4434 -0.0269,-31.7767 3.8761,-44.8183 1.0262,-3.433 1.5203,-7.0002 2.539,-10.4207 1.8831,-6.3272 1.4219,-4.1525 0.9017,-10.1577 -0.6395,-7.3695 -0.97,-16.7116 -0.97,-24.4701 0,-11.12 0.5085,-14.3725 -3.3596,-22.0804 -2.8208,-5.6214 -9.6001,-9.741 -9.6001,-15.8398 l 0,-1.4402 c 0,-2.1473 1.9817,-8.337 2.4143,-11.9852 0.4731,-3.9898 0.8719,-8.0087 1.523,-12.3973 0.5287,-3.5674 0.9621,-8.4087 2.9549,-10.9647 1.2186,-1.5619 6.4318,-4.9723 8.9475,-4.9723 l 0.9604,0 c 3.128,0 7.6802,1.6832 7.6802,4.7994 0,1.5363 -7.6802,5.6922 -7.6802,18.2406 0,4.1213 6.1696,10.5599 10.08,10.5599 2.1362,0 3.8574,-6.7254 4.6071,-8.8327 0.8947,-2.5132 3.8413,-6.1141 5.5911,-7.8486 4.6913,-4.6485 7.1453,-10.6789 15.7218,-10.6789 l 2.4001,0 c 2.9693,0 8.1598,0.6224 8.1598,3.3599 0,2.6917 -16.8004,12.5608 -16.8004,19.2001 0,3.2687 8.2145,16.3197 11.5203,16.3197 l 6.2396,0 c 9.5658,0 17.5417,-0.5185 26.8855,-0.4748 9.2679,0.044 14.7696,-2.8089 14.8929,-11.9866 0.1389,-10.3153 1.7187,-14.9012 3.8285,-23.0519 2.0172,-7.7922 0.3509,-16.3264 10.5531,-16.3264 l 9.1205,0 c 2.863,0 4.7999,0.979 4.7999,3.8398 0,5.4053 -8.6403,6.5962 -8.6403,8.6402 l 0,18.2401 c 0,4.1364 0.8626,6.9673 3.3596,8.6395 2.8985,-5.4771 5.0244,-14.169 7.2675,-20.5733 1.5148,-4.3251 5.398,-16.8667 10.4933,-16.8667 l 6.2396,0 c 3.2621,0 7.9407,0.5505 7.9407,3.8404 l 0,0.9603 c 0,5.457 -6.603,2.3395 -9.9292,10.2379 -1.2682,6.6765 -2.4058,13.7248 -3.2913,21.4418 l 0,1.4403 c 0,12.7307 3.5714,18.686 7.8426,27.1976 5.1888,10.3414 6.3037,13.4725 8.837,26.2023 2.4599,12.3611 7.5181,14.025 10.7487,24.2915 1.5781,5.0142 6.6512,23.1361 6.6512,28.3882 0,0.6729 -0.6534,0.9595 -1.4394,0.9595 -5.1593,0 -7.4143,-7.6799 -15.8397,-7.6799 -4.6196,0 -16.054,0.6831 -18.8969,2.2246 -3.056,1.658 -9.9173,8.3353 -12.7837,8.3353 -1.544,0 -2.1469,-2.3771 -1.9202,-3.8395 l 0.9604,-9.1205 c 0,-10.3567 -4.5496,-24.4794 -14.4003,-24.4794 -10.252,0 -16.5067,4.2494 -24.292,6.9066 -8.1304,2.7754 -17.3875,3.1734 -28.0282,3.1734 l -7.679,0 -20.6365,-0.586 c -6.4347,12.259 -12.4835,27.2152 -12.4835,45.7053 l 0,0.9607 z m 143.742,-42.8205 c 0,0 1.8216,-7.5807 -7.1679,-7.4103 -0.1097,2.7711 0.9603,4.7126 2.2297,5.7985 -0.006,-1.2126 0.4073,-3.1124 1.8224,-4.0158 0.2438,1.1554 0.3211,2.0636 0.3254,2.772 0.006,1.0389 -0.3053,1.9743 -0.7597,1.991 1.781,0.8587 3.5501,0.8646 3.5501,0.8646 z m -25.8817,0.4958 c 0,0 -1.1098,-8.5048 8.7029,-7.2726 -0.1831,2.744 -1.3856,4.5513 -2.7011,5.6257 -0.1721,-1.2785 -0.7033,-2.9313 -2.0679,-3.7293 -0.2259,1.0769 -0.3271,1.9069 -0.3489,2.6084 -0.0329,1.0248 0.1726,2.0407 0.5658,2.1734 -2.1093,0.8044 -4.1508,0.5944 -4.1508,0.5944 z"
         inkscape:connector-curvature="0" />
    </g>
    <path
       id="path3587"
       style="fill:#0c0d0c;fill-opacity:1;fill-rule:evenodd;stroke:none"
       d="m 397.58798,294.49852 c 0,-3.50808 1.66945,-10.16732 4.69246,-10.16732 l 0.26063,0 c 2.62214,0 5.77975,2.86774 8.60305,2.86774 0.60965,0 1.30348,-0.339 1.30348,-1.043 0,-2.98263 -1.54407,-5.44172 -3.70684,-7.50284 -1.60708,-1.53211 -3.91008,-2.40368 -6.98206,-2.40368 -10.41227,0 -12.54627,5.1436 -13.87495,14.01972 -1.25629,8.38766 -0.0146,17.25878 2.10508,24.34216 0.55745,1.86464 0.82583,3.80199 1.37909,5.65968 1.0228,3.43667 0.7722,2.25535 0.48959,5.51702 -0.34708,4.00268 -0.52659,9.07664 -0.52659,13.29051 0,6.0394 0.27613,7.80597 -1.82489,11.99236 -1.53211,3.05324 -5.21406,5.29065 -5.21406,8.60305 l 0,0.78237 c 0,1.16614 1.07629,4.52799 1.31123,6.50945 0.25707,2.16696 0.47359,4.34975 0.8273,6.73339 0.28712,1.93753 0.52255,4.56692 1.60482,5.95523 0.66183,0.8483 3.49337,2.7005 4.8597,2.7005 l 0.52174,0 c 1.69871,0 4.17122,-0.91422 4.17122,-2.60662 0,-0.83457 -4.17122,-3.09169 -4.17122,-9.90701 0,-2.23837 3.35086,-5.73547 5.47468,-5.73547 1.16015,0 2.09506,3.65286 2.50224,4.79733 0.48588,1.36504 2.08633,3.32081 3.0366,4.26283 2.54813,2.5247 3.88085,5.8001 8.53905,5.8001 l 1.30348,0 c 1.61273,0 4.43184,-0.33802 4.43184,-1.82489 0,-1.46199 -9.12479,-6.82227 -9.12479,-10.42826 0,-1.7753 4.46172,-8.86368 6.25706,-8.86368 l 3.38899,0 c 5.1953,0 9.52729,0.28164 14.60222,0.25788 5.03373,-0.0238 8.02184,1.52565 8.08873,6.51042 0.0756,5.60248 0.93346,8.09326 2.07939,12.52008 1.09568,4.23213 0.19067,8.86724 5.73175,8.86724 l 4.95359,0 c 1.55506,0 2.60711,-0.53176 2.60711,-2.08537 0,-2.93592 -4.69296,-3.58257 -4.69296,-4.69295 l 0,-9.90652 c 0,-2.24662 0.46859,-3.78422 1.82474,-4.69246 1.57428,2.97486 2.72893,7.69577 3.94725,11.17396 0.82262,2.34922 2.93189,9.16099 5.69928,9.16099 l 3.38884,0 c 1.77173,0 4.31275,-0.2991 4.31275,-2.08586 l 0,-0.52174 c 0,-2.96388 -3.58628,-1.27051 -5.39275,-5.56032 -0.68883,-3.62619 -1.30671,-7.45437 -1.78773,-11.64577 l 0,-0.78238 c 0,-6.91436 1.93977,-10.14889 4.25975,-14.77172 2.81813,-5.6167 3.42374,-7.31735 4.79959,-14.23122 1.33612,-6.71369 4.08332,-7.61742 5.83792,-13.1934 0.85702,-2.72345 3.61247,-12.56599 3.61247,-15.41854 0,-0.36549 -0.355,-0.52126 -0.7819,-0.52126 -2.80213,0 -4.02692,4.17122 -8.60304,4.17122 -2.50903,0 -8.71939,-0.37099 -10.26329,-1.20815 -1.65993,-0.90048 -5.38646,-4.52717 -6.9433,-4.52717 -0.8386,0 -1.16612,1.2912 -1.04284,2.08536 l 0.52158,4.95359 c 0,5.62496 -2.47105,13.29552 -7.82116,13.29552 -5.56823,0 -8.9653,-2.30802 -13.19387,-3.75126 -4.41585,-1.50739 -9.4436,-1.72359 -15.22286,-1.72359 l -4.17072,0 -11.20839,0.31832 c -3.49467,-6.65826 -6.78008,-14.78125 -6.78008,-24.82399 l 0,-0.52158 z m 78.07069,23.25714 c 0,0 0.98935,4.11708 -3.8933,4.02466 -0.0595,-1.50514 0.52175,-2.55945 1.21105,-3.14938 -0.003,0.6586 0.2212,1.69046 0.98985,2.18101 0.13233,-0.62741 0.1745,-1.12072 0.17677,-1.50544 0.003,-0.56441 -0.16578,-1.07225 -0.41268,-1.08146 0.96738,-0.46633 1.92831,-0.46939 1.92831,-0.46939 z m -14.05721,-0.26936 c 0,0 -0.60287,4.61912 4.72671,3.95 -0.0994,-1.49042 -0.75247,-2.47202 -1.46698,-3.05549 -0.0933,0.69432 -0.38198,1.59206 -1.12316,2.02542 -0.12267,-0.58492 -0.17757,-1.03573 -0.18953,-1.41674 -0.018,-0.55648 0.0939,-1.10844 0.30733,-1.18035 -1.14561,-0.43692 -2.25437,-0.32284 -2.25437,-0.32284"
       inkscape:connector-curvature="0" />
    <g
       transform="matrix(1.6036898,0.19696704,-0.19696704,1.6036898,432.14122,259.5746)"
       style="font-size:12.00026131px;font-style:normal;font-variant:normal;font-weight:600;font-stretch:normal;text-align:start;line-height:125%;writing-mode:lr-tb;text-anchor:start;font-family:Exo 2 Semi Bold;-inkscape-font-specification:'Exo 2 Semi Bold, Semi-Bold'"
       id="text3589">
      <path
         inkscape:connector-curvature="0"
         d="m 6.4201837,-1.2960487 0.1318389,1.12795422 C 5.8881839,0.03991782 5.0402658,0.14392389 4.008266,0.14392403 2.7680018,0.14392389 1.8959134,-0.17609008 1.3919981,-0.81611885 0.88807997,-1.456146 0.63612161,-2.5641402 0.63612225,-4.1401048 c -6.4e-7,-1.5759563 0.25195772,-2.6839505 0.75587585,-3.323986 0.5039153,-0.6400204 1.3760037,-0.9600344 2.6162679,-0.9600428 0.919937,8.4e-6 1.7119456,0.088023 2.3760283,0.2640438 L 6.240004,-7.0200503 c -0.6958214,-0.056146 -1.4397334,-0.084223 -2.231738,-0.08423 -0.6882507,7.1e-6 -1.1583533,0.2100335 -1.410309,0.6300797 -0.251961,0.4200591 -0.3779402,1.1980904 -0.377938,2.3340962 -2.2e-6,1.1360141 0.125977,1.9140454 0.377938,2.3340962 0.2519557,0.4200545 0.7220583,0.6300808 1.410309,0.6300797 1.0158862,1.1e-6 1.819858,-0.040039 2.4119177,-0.1201198 z"
         style="line-height:125%;fill:#231f20;fill-opacity:1;fill-rule:nonzero;stroke:none;font-family:Exo 2 Semi Bold;-inkscape-font-specification:'Exo 2 Semi Bold, Semi-Bold'"
         id="path4416" />
    </g>
    <g
       transform="matrix(1.6119304,-0.11278342,0.11278342,1.6119304,417.47356,260.69727)"
       style="font-size:11.99928951px;font-style:normal;font-variant:normal;font-weight:600;font-stretch:normal;text-align:start;line-height:125%;writing-mode:lr-tb;text-anchor:start;font-family:Exo 2 Semi Bold;-inkscape-font-specification:'Exo 2 Semi Bold, Semi-Bold'"
       id="text3593">
      <path
         inkscape:connector-curvature="0"
         d="m 6.3596088,-1.2238045 0,1.2238045 -5.81947965,0 0,-1.2238045 4.07971445,-5.8319301 -4.00794135,0 0,-1.2238045 5.66384925,0 0,1.2238045 -4.0797145,5.8319301 z"
         style="line-height:125%;fill:#231f20;fill-opacity:1;fill-rule:nonzero;stroke:none;font-family:Exo 2 Semi Bold;-inkscape-font-specification:'Exo 2 Semi Bold, Semi-Bold'"
         id="path4413" />
    </g>
    <g
       transform="matrix(1.5607093,0.4181712,-0.4181712,1.5607093,442.95469,260.69727)"
       style="font-size:12.00011539px;font-style:normal;font-variant:normal;font-weight:600;font-stretch:normal;text-align:start;line-height:125%;writing-mode:lr-tb;text-anchor:start;font-family:Exo 2 Semi Bold;-inkscape-font-specification:'Exo 2 Semi Bold, Semi-Bold'"
       id="text3597">
      <path
         inkscape:connector-curvature="0"
         d="m 7.2001425,-8.2801089 0,8.2801089 -1.5000144,0 0,-3.7921507 -3.2761546,0 0,3.7921507 -1.50001442,0 0,-8.2801089 1.50001442,0 0,3.2519844 3.2761546,0 0,-3.2519844 z"
         style="line-height:125%;fill:#231f20;fill-opacity:1;fill-rule:nonzero;stroke:none;font-family:Exo 2 Semi Bold;-inkscape-font-specification:'Exo 2 Semi Bold, Semi-Bold'"
         id="path4410" />
    </g>
    <g
       transform="matrix(1.5804222,-0.33592656,0.33592656,1.5804222,405.76234,263.31617)"
       style="font-size:12.00034428px;font-style:normal;font-variant:normal;font-weight:600;font-stretch:normal;text-align:start;line-height:125%;writing-mode:lr-tb;text-anchor:start;font-family:Exo 2 Semi Bold;-inkscape-font-specification:'Exo 2 Semi Bold, Semi-Bold'"
       id="text3601">
      <path
         inkscape:connector-curvature="0"
         d="m 5.3523264,-2.340155 -3.0722317,0 L 1.5959931,0 0.06006032,0 2.5441404,-7.8843815 c 0.072021,-0.2639154 0.2519575,-0.3958771 0.5398104,-0.3958853 l 1.4641533,0 c 0.2880894,8.2e-6 0.4681481,0.1319699 0.5401766,0.3958853 L 7.5723608,0 6.0360618,0 z M 4.9919645,-3.5761524 4.1639378,-6.4323134 C 4.0521142,-6.8642037 3.992176,-7.1001722 3.9841231,-7.1402195 l -0.324106,0 -0.1919,0.7079061 -0.8280267,2.856161 z"
         style="line-height:125%;fill:#231f20;fill-opacity:1;fill-rule:nonzero;stroke:none;font-family:Exo 2 Semi Bold;-inkscape-font-specification:'Exo 2 Semi Bold, Semi-Bold'"
         id="path4407" />
    </g>
    <g
       transform="matrix(1.4760409,0.65714926,-0.65714926,1.4760409,455.26507,264.06461)"
       style="font-size:12.00043392px;font-style:normal;font-variant:normal;font-weight:600;font-stretch:normal;text-align:start;line-height:125%;writing-mode:lr-tb;text-anchor:start;font-family:Exo 2 Semi Bold;-inkscape-font-specification:'Exo 2 Semi Bold, Semi-Bold'"
       id="text3605">
      <path
         inkscape:connector-curvature="0"
         d="m 4.0442136,-8.4363402 c 1.2800703,8.4e-6 2.1701162,0.3080027 2.6701405,0.9239836 0.5000109,0.615996 0.7500197,1.7400589 0.7500271,3.3721922 -7.4e-6,1.6321417 -0.2500162,2.7562046 -0.7500271,3.3721923 C 6.2143298,-0.15198288 5.3242839,0.15601134 4.0442136,0.1560115 2.7721922,0.15601134 1.8861747,-0.15198288 1.3861585,-0.7679721 0.88613955,-1.3839598 0.63613076,-2.5080227 0.6361314,-4.1401644 c -6.4e-7,-1.6321333 0.25000815,-2.7561962 0.7500271,-3.3721922 0.5000162,-0.6159809 1.3860337,-0.9239752 2.6580551,-0.9239836 z m 0,1.283982 c -0.6960734,7.1e-6 -1.1741176,0.2140039 -1.4341339,0.641991 -0.2600215,0.428 -0.3900309,1.2180669 -0.3900287,2.3702028 -2.2e-6,1.1521443 0.1300072,1.9422111 0.3900287,2.3702029 0.2600163,0.4279954 0.7380605,0.6419922 1.4341339,0.641991 0.7038781,1.2e-6 1.1858287,-0.2139956 1.4458531,-0.641991 0.2600134,-0.4279918 0.3900228,-1.2180586 0.3900287,-2.3702029 -5.9e-6,-1.1521359 -0.1300153,-1.9422028 -0.3900287,-2.3702028 -0.2600244,-0.4279871 -0.741975,-0.6419839 -1.4458531,-0.641991 z"
         style="line-height:125%;fill:#231f20;fill-opacity:1;fill-rule:nonzero;stroke:none;font-family:Exo 2 Semi Bold;-inkscape-font-specification:'Exo 2 Semi Bold, Semi-Bold'"
         id="path4404" />
    </g>
    <g
       transform="matrix(1.4760409,-0.65714926,0.65714926,1.4760409,395.69714,267.99345)"
       style="font-size:12.00043392px;font-style:normal;font-variant:normal;font-weight:600;font-stretch:normal;text-align:start;line-height:125%;writing-mode:lr-tb;text-anchor:start;font-family:Exo 2 Semi Bold;-inkscape-font-specification:'Exo 2 Semi Bold, Semi-Bold'"
       id="text3609">
      <path
         inkscape:connector-curvature="0"
         d="M 7.3321743,-8.2803287 4.9920018,-0.42005913 C 4.91216,-0.14001957 4.7281936,0 4.440102,0 L 3.0242793,0 C 2.8960979,0 2.7820192,-0.03802624 2.6820428,-0.11407883 2.582061,-0.1901312 2.5160797,-0.29212453 2.4840986,-0.42005913 l -2.3522579,-7.86026957 1.5483958,0 1.6919557,6.2162892 c 0.023923,0.095953 0.059874,0.2499498 0.1078531,0.4619918 0.047972,0.2120452 0.084045,0.3660423 0.1082192,0.4619918 l 0.2999376,0 c 0.047849,-0.2561114 0.1237798,-0.5641056 0.2277915,-0.9239836 l 1.6681511,-6.2162892 z"
         style="line-height:125%;fill:#231f20;fill-opacity:1;fill-rule:nonzero;stroke:none;font-family:Exo 2 Semi Bold;-inkscape-font-specification:'Exo 2 Semi Bold, Semi-Bold'"
         id="path4401" />
    </g>
    <g
       transform="matrix(1.3702055,0.85621685,-0.85621685,1.3702055,466.07854,269.49034)"
       style="font-size:12.00036907px;font-style:normal;font-variant:normal;font-weight:600;font-stretch:normal;text-align:start;line-height:125%;writing-mode:lr-tb;text-anchor:start;font-family:Exo 2 Semi Bold;-inkscape-font-specification:'Exo 2 Semi Bold, Semi-Bold'"
       id="text3613">
      <path
         inkscape:connector-curvature="0"
         d="M 7.3321347,-8.280284 4.9919748,-0.42005686 C 4.9121335,-0.14001881 4.728168,0 4.440078,0 L 3.0242629,0 C 2.8960823,0 2.7820042,-0.03802603 2.6820283,-0.11407822 2.582047,-0.19013017 2.5160661,-0.29212295 2.4840852,-0.42005686 L 0.13183999,-8.280284 l 1.54838751,0 1.6919465,6.2162557 c 0.023923,0.095952 0.059874,0.2499484 0.1078525,0.4619893 0.047972,0.212044 0.084044,0.3660403 0.1082186,0.4619893 l 0.299936,0 c 0.047849,-0.25611 0.1237791,-0.5641026 0.2277902,-0.9239786 L 5.7841134,-8.280284 z"
         style="line-height:125%;fill:#231f20;fill-opacity:1;fill-rule:nonzero;stroke:none;font-family:Exo 2 Semi Bold;-inkscape-font-specification:'Exo 2 Semi Bold, Semi-Bold'"
         id="path4398" />
    </g>
    <g
       transform="matrix(1.3702055,-0.85621685,0.85621685,1.3702055,386.53034,273.60613)"
       style="font-size:12.00036907px;font-style:normal;font-variant:normal;font-weight:600;font-stretch:normal;text-align:start;line-height:125%;writing-mode:lr-tb;text-anchor:start;font-family:Exo 2 Semi Bold;-inkscape-font-specification:'Exo 2 Semi Bold, Semi-Bold'"
       id="text3617">
      <path
         inkscape:connector-curvature="0"
         d="M 3.9119855,-3.2762238 2.2442096,-3.80395 C 1.6440919,-3.9960906 1.2160396,-4.2861383 0.9600515,-4.6740939 0.70406148,-5.0620403 0.57606695,-5.5720652 0.57606752,-6.2041703 c -5.7e-7,-0.9040734 0.21002765,-1.5000995 0.63008528,-1.7880799 0.4200553,-0.2879644 1.1580533,-0.4319507 2.2139963,-0.4319591 1.015896,8.4e-6 1.8839638,0.092052 2.6042061,0.2761316 l -0.096316,1.0679039 c -0.9118983,-0.031976 -1.731869,-0.047968 -2.4599146,-0.047975 -0.5520218,7.1e-6 -0.9200137,0.054025 -1.1039768,0.1620533 -0.1839678,0.1080424 -0.2759505,0.3699521 -0.2759484,0.7857297 -2.1e-6,0.3442547 0.065979,0.5863274 0.1979431,0.7262187 0.1319596,0.1399022 0.3739712,0.2658825 0.7260355,0.3779413 l 1.5959964,0.4922026 c 0.6320942,0.1999617 1.074124,0.4939158 1.3260905,0.8818631 0.2519547,0.3879547 0.377935,0.8979796 0.3779414,1.5300763 -6.4e-6,0.9121387 -0.2160162,1.52617066 -0.6480302,1.8420977 C 5.2321503,-0.0140385 4.4681505,0.14392518 3.372174,0.14392532 2.4600341,0.14392518 1.5640114,0.05590987 0.68410307,-0.12012088 l 0.0959502,-1.10379372 c 1.39994323,0.031985 2.27594583,0.047976 2.62801053,0.047975 0.552015,1.2e-6 0.9200069,-0.064027 1.1039768,-0.1920835 0.1839609,-0.1280542 0.2759437,-0.400096 0.2759485,-0.8161262 -4.8e-6,-0.3520591 -0.061957,-0.5960849 -0.1858578,-0.7320782 -0.1239097,-0.1359874 -0.353958,-0.2559861 -0.6901458,-0.3599964 z"
         style="line-height:125%;fill:#231f20;fill-opacity:1;fill-rule:nonzero;stroke:none;font-family:Exo 2 Semi Bold;-inkscape-font-specification:'Exo 2 Semi Bold, Semi-Bold'"
         id="path4395" />
    </g>
    <g
       transform="matrix(1.2377092,1.0386416,-1.0386416,1.2377092,475.58208,275.47674)"
       style="font-size:12.00006962px;font-style:normal;font-variant:normal;font-weight:600;font-stretch:normal;text-align:start;line-height:125%;writing-mode:lr-tb;text-anchor:start;font-family:Exo 2 Semi Bold;-inkscape-font-specification:'Exo 2 Semi Bold, Semi-Bold'"
       id="text3621">
      <path
         inkscape:connector-curvature="0"
         d="m 5.3522039,-2.3401015 -3.0721614,0 L 1.5959565,0 0.06005894,0 2.5440821,-7.884201 c 0.072019,-0.2639094 0.2519518,-0.3958681 0.5397981,-0.3958763 l 1.4641198,0 c 0.2880828,8.2e-6 0.4681374,0.1319669 0.5401643,0.3958763 L 7.5721875,0 6.0359237,0 z M 4.9918502,-3.5760706 4.1638425,-6.4321662 C 4.0520214,-6.8640466 3.9920846,-7.1000097 3.9840319,-7.1400561 l -0.3240986,0 -0.1918956,0.7078899 -0.8280077,2.8560956 z"
         style="line-height:125%;fill:#231f20;fill-opacity:1;fill-rule:nonzero;stroke:none;font-family:Exo 2 Semi Bold;-inkscape-font-specification:'Exo 2 Semi Bold, Semi-Bold'"
         id="path4392" />
    </g>
    <g
       transform="matrix(1.0168282,1.2556447,-1.2556447,1.0168282,483.7954,282.39886)"
       style="font-size:12.00033951px;font-style:normal;font-variant:normal;font-weight:600;font-stretch:normal;text-align:start;line-height:125%;writing-mode:lr-tb;text-anchor:start;font-family:Exo 2 Semi Bold;-inkscape-font-specification:'Exo 2 Semi Bold, Semi-Bold'"
       id="text3625">
      <path
         inkscape:connector-curvature="0"
         d="m 6.8523667,-6.9962917 -2.5562246,0 0,6.9962917 -1.5121278,0 0,-6.9962917 -2.53205405,0 0,-1.2839719 6.60040645,0 z"
         style="line-height:125%;fill:#231f20;fill-opacity:1;fill-rule:nonzero;stroke:none;font-family:Exo 2 Semi Bold;-inkscape-font-specification:'Exo 2 Semi Bold, Semi-Bold'"
         id="path4389" />
    </g>
    <g
       transform="matrix(1.1818022,-1.1019813,1.1019813,1.1818022,375.45527,283.14731)"
       style="font-size:11.9993372px;font-style:normal;font-variant:normal;font-weight:600;font-stretch:normal;text-align:start;line-height:125%;writing-mode:lr-tb;text-anchor:start;font-family:Exo 2 Semi Bold;-inkscape-font-specification:'Exo 2 Semi Bold, Semi-Bold'"
       id="text3629">
      <path
         inkscape:connector-curvature="0"
         d="m 3.0719739,-8.6875084 -0.4562737,-0.6481576 2.256101,-1.775659 0.7558176,1.079897 z m 1.211725,5.8916423 0,2.7958661 -1.4999171,0 0,-2.8196685 -2.72372652,-5.4599035 1.58377482,0 1.5120014,3.2158869 c 0.055902,0.1279275 0.1678341,0.4599401 0.3357969,0.9960387 l 0.096308,0 C 3.7558923,-4.603745 3.8678245,-4.9357576 3.9237335,-5.0636851 l 1.5120014,-3.2158869 1.5599724,0 z"
         style="line-height:125%;fill:#231f20;fill-opacity:1;fill-rule:nonzero;stroke:none;font-family:Exo 2 Semi Bold;-inkscape-font-specification:'Exo 2 Semi Bold, Semi-Bold'"
         id="path4386" />
    </g>
    <g
       transform="matrix(0.80790418,1.39929,-1.39929,0.80790418,490.56773,290.44365)"
       style="font-size:12.00002098px;font-style:normal;font-variant:normal;font-weight:600;font-stretch:normal;text-align:start;line-height:125%;writing-mode:lr-tb;text-anchor:start;font-family:Exo 2 Semi Bold;-inkscape-font-specification:'Exo 2 Semi Bold, Semi-Bold'"
       id="text3633">
      <path
         inkscape:connector-curvature="0"
         d="m 6.2039903,-1.2121603 0.072144,1.14001662 c -0.7280344,0.0642091 -1.9440998,0.09631362 -3.6482,0.09631364 -0.5439484,-2e-8 -0.9739414,-0.14001477 -1.2899803,-0.42004468 C 1.0219124,-0.67590383 0.859986,-1.0599373 0.85217434,-1.5479763 l 0,-5.1840911 C 0.859986,-7.2200982 1.0219124,-7.6040706 1.337954,-7.883986 c 0.3160389,-0.2798995 0.7460319,-0.4198532 1.2899803,-0.4198615 1.7041002,8.3e-6 2.9201656,0.031991 3.6481997,0.095947 l -0.072144,1.1517354 -3.2398738,0 c -0.2160676,7.1e-6 -0.3701204,0.052009 -0.462159,0.1560062 -0.092044,0.1040108 -0.1380641,0.2840647 -0.1380618,0.540162 l 0,1.4520289 3.3962462,0 0,1.1521017 -3.3962462,0 0,1.8479036 c -2.3e-6,0.2558615 0.046018,0.4357932 0.1380618,0.5397958 0.092039,0.1040054 0.2460914,0.1560074 0.462159,0.1560062 z"
         style="line-height:125%;fill:#231f20;fill-opacity:1;fill-rule:nonzero;stroke:none;font-family:Exo 2 Semi Bold;-inkscape-font-specification:'Exo 2 Semi Bold, Semi-Bold'"
         id="path4383" />
    </g>
    <g
       transform="matrix(1.0168282,-1.2556447,1.2556447,1.0168282,368.30822,291.94038)"
       style="font-size:12.00033951px;font-style:normal;font-variant:normal;font-weight:600;font-stretch:normal;text-align:start;line-height:125%;writing-mode:lr-tb;text-anchor:start;font-family:Exo 2 Semi Bold;-inkscape-font-specification:'Exo 2 Semi Bold, Semi-Bold'"
       id="text3637">
      <path
         inkscape:connector-curvature="0"
         d="m 3.1560952,-3.7321613 -0.8159411,0 c 0.055907,0.2561143 0.083862,0.5280944 0.083865,0.8159411 l 0,2.9162202 -1.50004246,0 0,-8.2802636 1.50004246,0 0,2.4361041 c -2.4e-6,0.3520663 -0.027957,0.6720213 -0.083865,0.959866 l 0.8159411,0 2.2680085,-3.3959701 1.6322483,0 -2.2321188,3.3362761 c -0.1359949,0.2158311 -0.320082,0.4238446 -0.5522618,0.6240411 l 0,0.03589 c 0.2800327,0.2319442 0.4961031,0.4679125 0.6482117,0.7079057 L 7.2123623,0 5.5321389,0 z"
         style="line-height:125%;fill:#231f20;fill-opacity:1;fill-rule:nonzero;stroke:none;font-family:Exo 2 Semi Bold;-inkscape-font-specification:'Exo 2 Semi Bold, Semi-Bold'"
         id="path4380" />
    </g>
    <g
       transform="matrix(0.68284061,1.4644071,-1.4644071,0.68284061,496.14341,300.54616)"
       style="font-size:11.9999342px;font-style:normal;font-variant:normal;font-weight:600;font-stretch:normal;text-align:start;line-height:125%;writing-mode:lr-tb;text-anchor:start;font-family:Exo 2 Semi Bold;-inkscape-font-specification:'Exo 2 Semi Bold, Semi-Bold'"
       id="text3641">
      <path
         inkscape:connector-curvature="0"
         d="m 2.4001333,-8.2799839 0,6.3478656 c -2.4e-6,0.2561038 0.051999,0.4341422 0.156005,0.5341157 0.1040007,0.099976 0.2879595,0.1499638 0.5518769,0.1499626 l 2.879867,0 0.060058,1.16417816 c -0.7839365,0.0720211 -1.8798767,0.10803161 -3.2878238,0.10803163 -1.239985,-2e-8 -1.85997605,-0.5720178 -1.85997515,-1.71605509 l 0,-6.5880986 z"
         style="line-height:125%;fill:#231f20;fill-opacity:1;fill-rule:nonzero;stroke:none;font-family:Exo 2 Semi Bold;-inkscape-font-specification:'Exo 2 Semi Bold, Semi-Bold'"
         id="path4377" />
    </g>
    <g
       transform="matrix(0.80790418,-1.39929,1.39929,0.80790418,362.88298,301.29461)"
       style="font-size:12.00002098px;font-style:normal;font-variant:normal;font-weight:600;font-stretch:normal;text-align:start;line-height:125%;writing-mode:lr-tb;text-anchor:start;font-family:Exo 2 Semi Bold;-inkscape-font-specification:'Exo 2 Semi Bold, Semi-Bold'"
       id="text3645">
      <path
         inkscape:connector-curvature="0"
         d="M 3.9118721,-3.2761288 2.2441445,-3.8038397 C 1.6440442,-3.9959747 1.2160043,-4.2860139 0.96002365,-4.6739584 0.70404105,-5.0618934 0.57605024,-5.5719036 0.57605081,-6.2039903 c -5.7e-7,-0.9040472 0.21002156,-1.500056 0.63006699,-1.7880281 0.4200431,-0.2879561 1.1580197,-0.4319381 2.2139321,-0.4319465 1.0158665,8.4e-6 1.8839091,0.092049 2.6041306,0.2761235 l -0.096314,1.067873 c -0.9118718,-0.031975 -1.7318187,-0.047967 -2.4598432,-0.047974 -0.5520058,7.1e-6 -0.919987,0.054023 -1.1039448,0.1620486 -0.1839624,0.1080392 -0.2759425,0.3699413 -0.2759404,0.7857069 -2.1e-6,0.3442447 0.065977,0.5863103 0.1979374,0.7261976 0.1319558,0.1398981 0.3739604,0.2658748 0.7260144,0.3779303 L 4.60804,-4.5838706 c 0.6320759,0.1999559 1.0740929,0.4939014 1.3260521,0.8818375 0.2519474,0.3879434 0.377924,0.8979536 0.3779304,1.5300319 -6.4e-6,0.9121123 -0.2160099,1.52612639 -0.6480114,1.84204427 C 5.2319985,-0.0140381 4.4680209,0.14392101 3.3720762,0.14392115 2.4599628,0.14392101 1.563966,0.05590824 0.68408323,-0.1201174 l 0.0959474,-1.1037617 c 1.39990267,0.031984 2.27587987,0.047975 2.62793427,0.047974 0.551999,1.2e-6 0.9199802,-0.064025 1.1039448,-0.1920779 0.1839556,-0.1280505 0.2759357,-0.4000844 0.2759405,-0.8161025 -4.8e-6,-0.3520489 -0.061956,-0.5960676 -0.1858524,-0.732057 C 4.4780917,-3.052126 4.2480501,-3.1721212 3.9118721,-3.2761285 z"
         style="line-height:125%;fill:#231f20;fill-opacity:1;fill-rule:nonzero;stroke:none;font-family:Exo 2 Semi Bold;-inkscape-font-specification:'Exo 2 Semi Bold, Semi-Bold'"
         id="path4374" />
    </g>
    <g
       transform="matrix(0.44531678,1.5532766,-1.5532766,0.44531678,500.09098,309.33939)"
       style="font-size:11.99943829px;font-style:normal;font-variant:normal;font-weight:600;font-stretch:normal;text-align:start;line-height:125%;writing-mode:lr-tb;text-anchor:start;font-family:Exo 2 Semi Bold;-inkscape-font-specification:'Exo 2 Semi Bold, Semi-Bold'"
       id="text3649">
      <path
         inkscape:connector-curvature="0"
         d="m 4.0438781,-11.207361 c 0.3678983,1.1e-5 0.6858762,0.127996 0.9539348,0.383954 0.2680486,0.25598 0.4020754,0.571944 0.4020808,0.9478927 -5.4e-6,0.3759685 -0.1320181,0.6899183 -0.3960386,0.9418505 -0.2640304,0.25195 -0.5840225,0.3779205 -0.959977,0.377912 -0.3840189,8.5e-6 -0.7080391,-0.125962 -0.9720614,-0.377912 -0.2640286,-0.2519322 -0.3960413,-0.565882 -0.3960386,-0.9418505 -2.7e-6,-0.3759487 0.13201,-0.6919127 0.3960386,-0.9478927 0.2640223,-0.255958 0.5880425,-0.383943 0.9720614,-0.383954 z m 0,0.671966 c -0.1840773,10e-6 -0.3361086,0.06 -0.4560944,0.179984 -0.119993,0.119999 -0.1799876,0.279965 -0.1799842,0.4798967 -3.4e-6,0.1918953 0.059991,0.3458796 0.1799842,0.4619535 0.1199858,0.1160927 0.2720171,0.1741344 0.4560944,0.1741251 0.1760129,9.3e-6 0.3240161,-0.058032 0.44401,-0.1741251 0.1199849,-0.1160739 0.1799795,-0.2700582 0.1799842,-0.4619535 -4.7e-6,-0.1999317 -0.059999,-0.3598977 -0.1799842,-0.4798967 -0.1199939,-0.119979 -0.2679971,-0.179974 -0.44401,-0.179984 z m 3.1437737,2.2557533 0,5.0399252 c -7.2e-6,1.2399342 -0.2319907,2.1158689 -0.6959513,2.62780667 C 6.0277269,-0.09997081 5.2277774,0.1559984 4.0918495,0.15599856 2.90782,0.1559984 2.0738144,-0.09997081 1.5898304,-0.61190983 1.1058431,-1.1238476 0.8638503,-1.9997823 0.86385116,-3.2397165 l 0,-5.0399252 1.49992974,0 0,5.0399252 c -2.3e-6,0.7919576 0.1220011,1.3419191 0.3660107,1.6498861 0.2440042,0.3079703 0.6780045,0.4619546 1.3020021,0.4619535 0.6159333,1.1e-6 1.0438914,-0.1539832 1.2838754,-0.4619535 0.2399735,-0.307967 0.3599629,-0.8579285 0.3599685,-1.6498861 l 0,-5.0399252 z"
         style="line-height:125%;fill:#231f20;fill-opacity:1;fill-rule:nonzero;stroke:none;font-family:Exo 2 Semi Bold;-inkscape-font-specification:'Exo 2 Semi Bold, Semi-Bold'"
         id="path4371" />
    </g>
    <g
       transform="matrix(0.60528181,-1.4981775,1.4981775,0.60528181,358.80421,311.02308)"
       style="font-size:11.99960709000000000px;font-style:normal;font-variant:normal;font-weight:600;font-stretch:normal;text-align:start;line-height:125%;writing-mode:lr-tb;text-anchor:start;font-family:Exo 2 Semi Bold;-inkscape-font-specification:'Exo 2 Semi Bold, Semi-Bold';fill:#231f20;fill-opacity:1"
       id="text3653">
      <path
         inkscape:connector-curvature="0"
         d="m 6.2037764,-1.2121185 0.072141,1.13997731 C 5.5479085,-0.0079343 4.3318851,0.02416911 2.6278436,0.02416913 2.0839141,0.02416911 1.6539359,-0.11584082 1.3379079,-0.39586106 1.0218771,-0.67588051 0.85995633,-1.0599008 0.85214495,-1.5479229 l 0,-5.1839123 c 0.007811,-0.4880139 0.16973215,-0.8719732 0.48576295,-1.1518788 0.316028,-0.2798899 0.7460062,-0.4198388 1.2899357,-0.4198471 1.7040415,8.3e-6 2.9200649,0.03199 3.6480739,0.095944 l -0.072141,1.1516957 -3.2397621,0 c -0.2160602,7.1e-6 -0.3701077,0.052007 -0.4621431,0.1560007 -0.09204,0.1040073 -0.1380594,0.284055 -0.138057,0.5401435 l 0,1.4519788 3.396129,0 0,1.1520619 -3.396129,0 0,1.8478399 c -2.4e-6,0.2558526 0.046017,0.4357782 0.138057,0.5397772 0.092035,0.1040018 0.2460829,0.156002 0.4621431,0.1560008 z"
         style="line-height:125%;fill:#231f20;fill-opacity:1;fill-rule:nonzero;stroke:none;font-family:Exo 2 Semi Bold;-inkscape-font-specification:'Exo 2 Semi Bold, Semi-Bold'"
         id="path4368" />
    </g>
    <g
       transform="matrix(0.36355688,-1.5744437,1.5744437,0.36355688,356.40973,321.12574)"
       style="font-size:11.99927425px;font-style:normal;font-variant:normal;font-weight:600;font-stretch:normal;text-align:start;line-height:125%;writing-mode:lr-tb;text-anchor:start;font-family:Exo 2 Semi Bold;-inkscape-font-specification:'Exo 2 Semi Bold, Semi-Bold'"
       id="text3657">
      <path
         inkscape:connector-curvature="0"
         d="m 5.9754687,-10.463478 -1.7756495,1.572048 -0.6239857,0 -1.7760156,-1.572048 0.444187,-0.599818 1.5958507,0.971865 0.095941,0 1.5837665,-0.971865 z m 0.444187,9.1675359 0.1318279,1.12786145 C 5.8876995,0.03991454 5.0398513,0.14391205 4.0079363,0.14391219 2.7677742,0.14391205 1.8957575,-0.1760756 1.3918836,-0.81605172 0.88800693,-1.4560262 0.63606929,-2.5639293 0.63606993,-4.1397643 c -6.4e-7,-1.5758267 0.251937,-2.6837297 0.75581367,-3.3237125 0.5038739,-0.6399679 1.3758906,-0.9599555 2.6160527,-0.9599639 0.9198613,8.4e-6 1.7118048,0.088016 2.3758329,0.2640221 l -0.1442784,1.1399457 c -0.6957643,-0.056142 -1.439615,-0.084216 -2.2315545,-0.084223 -0.6881941,7.1e-6 -1.158258,0.2100161 -1.410193,0.6300278 -0.2519403,0.4200246 -0.3779091,1.1979919 -0.3779069,2.3339042 -2.2e-6,1.1359207 0.1259666,1.913888 0.3779069,2.3339043 0.251935,0.4200199 0.7219989,0.630029 1.410193,0.6300278 1.0158027,1.2e-6 1.8197083,-0.040035 2.4117194,-0.1201099 z"
         style="line-height:125%;fill:#231f20;fill-opacity:1;fill-rule:nonzero;stroke:none;font-family:Exo 2 Semi Bold;-inkscape-font-specification:'Exo 2 Semi Bold, Semi-Bold'"
         id="path4365" />
    </g>
    <path
       id="path3661"
       style="fill:#231f20;fill-opacity:1;fill-rule:nonzero;stroke:none"
       d="m 367.19107,393.20825 -4.162,-4.98154 11.05584,-0.94848 1.46424,-1.22349 -5.66114,-6.77638 -1.46473,1.22382 4.00671,4.79507 -11.05616,0.94816 -1.46441,1.22381 5.81788,6.96235 1.46377,-1.22332 z m 13.57957,-2.40142 c -0.73374,-0.6481 -1.42951,-1.11167 -2.0873,-1.39202 -0.65942,-0.27792 -1.31074,-0.36227 -1.95933,-0.24964 -0.65085,0.11078 -1.33239,0.43061 -2.04093,0.95866 -0.70723,0.52546 -1.48315,1.27148 -2.31949,2.23434 -0.84087,0.95866 -1.47394,1.8257 -1.90084,2.59918 -0.42722,0.77365 -0.65084,1.48995 -0.67185,2.14952 -0.0261,0.66005 0.1451,1.29442 0.5093,1.91053 0.36695,0.6132 0.91923,1.24127 1.66121,1.88016 0.73795,0.65311 1.43727,1.11797 2.09458,1.3988 0.66231,0.27985 1.31591,0.36549 1.96853,0.25288 0.64908,-0.11233 1.32787,-0.43013 2.03915,-0.95544 0.70902,-0.52772 1.48316,-1.27244 2.31901,-2.23531 0.84087,-0.95817 1.4762,-1.82748 1.90133,-2.59919 0.42496,-0.77542 0.64988,-1.49365 0.67362,-2.15176 0.0217,-0.66007 -0.15156,-1.29588 -0.51835,-1.91361 -0.36646,-0.61384 -0.92213,-1.24368 -1.66864,-1.8871 z m -1.31591,1.5082 c 0.41268,0.35645 0.70626,0.71176 0.88352,1.0737 0.17499,0.35952 0.2254,0.74699 0.15398,1.16112 -0.0693,0.41543 -0.26935,0.88158 -0.59688,1.39913 -0.32525,0.519 -0.78188,1.11345 -1.37262,1.78644 -0.58686,0.67556 -1.11394,1.20862 -1.58446,1.6003 -0.46843,0.39425 -0.90308,0.65634 -1.30622,0.78043 -0.39992,0.12681 -0.79095,0.12914 -1.17114,0.005 -0.38198,-0.12681 -0.77414,-0.37002 -1.18262,-0.73099 -0.40912,-0.35224 -0.7027,-0.70805 -0.87479,-1.06531 -0.17451,-0.35919 -0.22266,-0.74521 -0.15124,-1.15886 0.0711,-0.41397 0.27162,-0.88029 0.59963,-1.39782 0.32429,-0.51852 0.7814,-1.11297 1.37262,-1.78547 0.58589,-0.67638 1.11297,-1.20912 1.58349,-1.60127 0.46843,-0.39426 0.90356,-0.65586 1.30396,-0.78222 0.40024,-0.12642 0.78916,-0.13056 1.16888,-0.006 0.37697,0.12228 0.76897,0.36549 1.17389,0.72276 m 10.96826,13.82227 0.52498,6.8772 2.30979,1.23496 -0.52352,-6.60155 c -0.0146,-0.23089 -0.0569,-0.46858 -0.12008,-0.71451 -0.0645,-0.24285 -0.1493,-0.48959 -0.25093,-0.73519 l 0.027,-0.0495 c 0.24641,-0.0522 0.46309,-0.11311 0.64713,-0.18048 0.18517,-0.0672 0.37568,-0.15981 0.57038,-0.2721 l 5.5196,-2.94691 -2.24339,-1.1991 -5.61444,3.00331 -1.1217,-0.59996 c 0.15609,-0.19244 0.30087,-0.39021 0.43514,-0.60188 0.13508,-0.20699 0.2624,-0.42513 0.38602,-0.65634 l 1.78999,-3.34957 -2.06291,-1.10248 -6.08399,11.38516 2.06209,1.10246 2.14304,-4.00995 c 0.0971,-0.18097 0.18728,-0.36969 0.26984,-0.5699 0.0834,-0.19599 0.15383,-0.40169 0.21378,-0.61368 l 1.12217,0.59995 z m 15.10296,-1.35017 c -0.92343,-0.32624 -1.74232,-0.49525 -2.45732,-0.5085 -0.71548,-0.0116 -1.35065,0.15528 -1.90989,0.50251 -0.56245,0.34675 -1.07419,0.89824 -1.53355,1.65347 -0.45889,0.75167 -0.89856,1.73456 -1.31318,2.94044 -0.42091,1.20378 -0.68284,2.24484 -0.78916,3.12239 -0.10625,0.87706 -0.0448,1.62469 0.18227,2.24436 0.22315,0.62159 0.61982,1.14544 1.18858,1.58058 0.56991,0.43142 1.31689,0.80661 2.24388,1.12121 0.92893,0.32897 1.75154,0.49799 2.46653,0.51173 0.71856,0.0116 1.35663,-0.1535 1.91958,-0.50252 0.55972,-0.34707 1.07031,-0.89677 1.53243,-1.65023 0.46035,-0.7549 0.89871,-1.73456 1.31365,-2.94045 0.42044,-1.20377 0.68349,-2.24806 0.78836,-3.12286 0.10342,-0.87803 0.0439,-1.62826 -0.18049,-2.24759 -0.22766,-0.61967 -0.62661,-1.14416 -1.19828,-1.57962 -0.56974,-0.43191 -1.32044,-0.80758 -2.25341,-1.12492 z m -0.65585,1.89162 c 0.51609,0.1758 0.92198,0.39572 1.22155,0.66459 0.29682,0.26741 0.48862,0.60819 0.57797,1.0186 0.0917,0.41139 0.0801,0.91875 -0.0297,1.52112 -0.10626,0.6027 -0.30781,1.32512 -0.60367,2.17019 -0.29003,0.84636 -0.57943,1.53793 -0.86898,2.07793 -0.28664,0.54097 -0.59219,0.94638 -0.91875,1.21282 -0.32331,0.2671 -0.68525,0.41544 -1.0842,0.44306 -0.40169,0.0255 -0.85638,-0.0531 -1.37086,-0.23509 -0.51059,-0.17354 -0.91648,-0.39346 -1.21007,-0.6599 -0.29586,-0.26807 -0.48506,-0.60787 -0.57393,-1.0178 -0.0892,-0.41042 -0.0782,-0.91794 0.0322,-1.52064 0.10665,-0.60237 0.30733,-1.32513 0.60367,-2.1697 0.29035,-0.84685 0.57943,-1.53842 0.86881,-2.07793 0.28632,-0.54147 0.59188,-0.94639 0.91569,-1.2138 0.32428,-0.2671 0.68284,-0.41737 1.0813,-0.44387 0.39538,-0.0279 0.85007,0.0509 1.35905,0.23042 m 16.97843,-1.22026 -0.51706,-1.0548 -2.71617,1.01037 -0.14656,-0.0287 -2.14903,-1.96725 -0.85928,0.78416 2.24388,2.93963 0.95462,0.18728 3.1896,-1.87063 z m -2.0776,14.15853 c -0.36776,-0.0212 -0.73278,-0.0555 -1.10248,-0.0989 -0.36678,-0.0436 -0.76169,-0.10225 -1.18583,-0.17645 -0.42448,-0.0704 -0.90227,-0.16125 -1.43775,-0.26661 -0.5211,-0.0989 -0.94395,-0.2582 -1.26631,-0.47763 -0.32252,-0.21943 -0.5547,-0.52223 -0.69771,-0.91245 -0.14008,-0.3865 -0.19825,-0.88126 -0.1758,-1.48347 0.0265,-0.60237 0.12319,-1.33612 0.29586,-2.19814 0.16675,-0.86382 0.35499,-1.57962 0.55843,-2.14677 0.2065,-0.5665 0.44838,-1.00164 0.72403,-1.30671 0.27986,-0.30733 0.61013,-0.49961 0.99114,-0.58072 0.38165,-0.0801 0.83311,-0.0679 1.35308,0.037 0.37648,0.0743 0.71548,0.14428 1.01457,0.20618 0.2986,0.0646 0.57523,0.12603 0.83036,0.18872 0.25514,0.06 0.50979,0.12229 0.75669,0.19002 0.24818,0.0652 0.51107,0.13556 0.78722,0.21538 l 0.56295,-1.70031 c -0.25741,-0.12758 -0.51157,-0.24092 -0.75846,-0.34384 -0.2469,-0.10225 -0.5043,-0.19745 -0.77721,-0.28261 -0.27162,-0.0888 -0.57038,-0.16901 -0.89774,-0.24964 -0.32704,-0.0796 -0.70272,-0.16029 -1.12137,-0.24286 -0.948,-0.18953 -1.77207,-0.23348 -2.47607,-0.12733 -0.70707,0.10212 -1.3122,0.37099 -1.81746,0.80565 -0.50462,0.43482 -0.93152,1.05303 -1.27875,1.85236 -0.34854,0.80241 -0.64115,1.806 -0.87432,3.0088 -0.23962,1.20232 -0.34901,2.24193 -0.3293,3.11367 0.0187,0.87382 0.17952,1.60805 0.48232,2.2012 0.30264,0.59365 0.7617,1.07178 1.37683,1.43404 0.61191,0.36453 1.39089,0.63534 2.3405,0.81857 0.57426,0.11311 1.0918,0.19874 1.54487,0.25594 0.4521,0.0577 0.87529,0.0866 1.2655,0.0904 0.39297,0.005 0.78464,-0.0145 1.17437,-0.0582 l 0.13784,-1.76526 z m 7.97143,-3.49467 3.48659,5.95102 2.61712,0.0971 -3.36427,-5.70332 c -0.1144,-0.201 -0.25692,-0.39619 -0.42125,-0.58993 -0.16449,-0.19002 -0.3482,-0.3747 -0.54791,-0.55099 l 0.001,-0.0564 c 0.1989,-0.1548 0.36694,-0.3041 0.50348,-0.44564 0.13605,-0.14204 0.26694,-0.3083 0.39248,-0.49412 l 3.67014,-5.06896 -2.54296,-0.094 -3.72928,5.16057 -1.27147,-0.0472 c 0.056,-0.24123 0.0995,-0.48312 0.12732,-0.73179 0.0308,-0.2456 0.0496,-0.49751 0.0592,-0.75895 l 0.14105,-3.79569 -2.33726,-0.0866 -0.47813,12.90029 2.33728,0.0866 0.16804,-4.54317 c 0.008,-0.20569 0.006,-0.41445 -0.008,-0.63065 -0.009,-0.21264 -0.0372,-0.42835 -0.0761,-0.64535 l 1.27147,0.0472 z m 14.95139,0.61545 3.01607,-9.04868 -2.40966,0.3335 -1.64716,5.29016 c -0.0746,0.25868 -0.13508,0.52852 -0.1808,0.80838 -0.0432,0.27938 -0.0848,0.54696 -0.12551,0.80112 l -0.14833,0.0206 c -0.10458,-0.23446 -0.21717,-0.47989 -0.33771,-0.73697 -0.11711,-0.25789 -0.24868,-0.50058 -0.39378,-0.72906 l -3.02204,-4.64399 -2.44633,0.339 5.37353,7.85008 0.6027,4.35444 2.31625,-0.32025 -0.5972,-4.31825 z m 17.47077,-7.21846 c 0.46811,-0.2414 0.80613,-0.52853 1.02378,-0.86478 0.21522,-0.3348 0.31331,-0.72679 0.29537,-1.1734 -0.0145,-0.44741 -0.1388,-0.95542 -0.37196,-1.52742 -0.24318,-0.61482 -0.5198,-1.09519 -0.82762,-1.44147 -0.31007,-0.34626 -0.67056,-0.57441 -1.0855,-0.67976 -0.41445,-0.10212 -0.90324,-0.0975 -1.46619,0.0145 -0.56327,0.11181 -1.22105,0.32251 -1.97225,0.62708 -0.47488,0.19051 -0.90307,0.36276 -1.28554,0.52305 -0.38019,0.15624 -0.73422,0.30506 -1.05803,0.44515 -0.32301,0.13928 -0.63259,0.28082 -0.93167,0.42463 -0.29634,0.13928 -0.59867,0.29037 -0.9055,0.4471 l 4.81058,11.9796 c 0.36744,-0.11452 0.72776,-0.22912 1.07678,-0.34853 0.34627,-0.11608 0.70675,-0.2469 1.07597,-0.38166 0.37147,-0.13911 0.77268,-0.29407 1.20781,-0.46535 0.43514,-0.17127 0.9257,-0.36452 1.46974,-0.58298 0.69803,-0.27711 1.27892,-0.56392 1.73408,-0.86106 0.45857,-0.29828 0.80015,-0.62661 1.01829,-0.9871 0.22201,-0.35774 0.32462,-0.77219 0.30959,-1.23674 -0.0146,-0.4639 -0.14429,-1.00342 -0.39345,-1.61581 -0.25239,-0.6376 -0.54873,-1.1574 -0.88578,-1.55279 -0.334,-0.39652 -0.73293,-0.65311 -1.19135,-0.77495 -0.46082,-0.11711 -0.99904,-0.0861 -1.61919,0.10264 l -0.0279,-0.0697 z m -4.44864,0.91972 -1.35259,-3.36832 1.996,-0.80144 c 0.52725,-0.21861 0.96464,-0.34352 1.31139,-0.37519 0.34675,-0.0321 0.63566,0.0434 0.8656,0.23042 0.22944,0.18678 0.42915,0.50009 0.60414,0.94298 0.1842,0.45033 0.26516,0.82811 0.24512,1.12865 -0.0252,0.29908 -0.15802,0.55422 -0.40492,0.76719 -0.24415,0.21199 -0.61013,0.41315 -1.09471,0.60463 l -2.17003,0.87108 z m 2.15404,5.364 -1.51968,-3.78422 2.20493,-0.88531 c 0.4122,-0.16173 0.77171,-0.26984 1.07807,-0.31847 0.30782,-0.0467 0.5762,-0.0303 0.80435,0.0527 0.22848,0.0834 0.43368,0.24285 0.61369,0.47327 0.18097,0.23267 0.35095,0.54775 0.50704,0.94574 0.14703,0.35724 0.2309,0.66683 0.25109,0.92715 0.0238,0.25917 -0.0225,0.48635 -0.13282,0.68138 -0.11091,0.19292 -0.29003,0.37245 -0.54242,0.53047 -0.25142,0.16126 -0.57975,0.32332 -0.9829,0.48184 l -2.28135,0.89548 z m 20.05589,-7.89727 -3.01881,-2.9259 c -0.28761,-0.30587 -0.57975,-0.52627 -0.87609,-0.66184 -0.29505,-0.13605 -0.57669,-0.20844 -0.84556,-0.21942 -0.26887,-0.0116 -0.50898,0.0161 -0.72194,0.0844 l -0.0463,-0.0812 c 0.4736,-0.35904 0.79659,-0.74198 0.9711,-1.15191 0.17483,-0.40944 0.21475,-0.85282 0.1219,-1.32787 -0.0922,-0.47263 -0.29925,-0.99017 -0.6216,-1.54536 -0.36275,-0.63663 -0.7415,-1.12121 -1.13414,-1.45972 -0.38924,-0.34029 -0.81517,-0.54226 -1.26679,-0.60965 -0.45663,-0.0682 -0.9606,-0.0129 -1.51563,0.16627 -0.55293,0.17677 -1.17162,0.46454 -1.85963,0.86349 -0.47586,0.2734 -0.895,0.51383 -1.25953,0.73002 -0.36597,0.21442 -0.70077,0.41413 -1.00034,0.60044 -0.29909,0.18597 -0.58897,0.3705 -0.8643,0.55422 -0.27889,0.18453 -0.56618,0.38618 -0.86381,0.60011 l 6.43108,11.19271 2.01119,-1.15515 -2.58141,-4.49324 2.0209,-1.13962 c 0.33608,-0.19698 0.65214,-0.27841 0.95122,-0.24093 0.29812,0.0372 0.60545,0.20198 0.92424,0.50107 l 2.88648,2.95838 2.15775,-1.23933 z m -9.89101,-2.49496 -2.02267,-3.51988 2.0112,-1.15562 c 0.47004,-0.27712 0.87125,-0.4429 1.20458,-0.50107 0.3335,-0.059 0.6313,0.005 0.89419,0.19099 0.26064,0.18469 0.52078,0.50624 0.78044,0.96513 0.26516,0.45533 0.41316,0.84457 0.44467,1.16838 0.0326,0.32656 -0.0587,0.62338 -0.27194,0.88999 -0.21587,0.26337 -0.55794,0.53274 -1.02927,0.8071 l -2.0112,1.15498 z m 13.61432,-16.79019 -1.77659,1.43273 5.23749,6.49572 c 0.21668,0.26935 0.44143,0.53257 0.67282,0.79465 0.2317,0.25789 0.46988,0.519 0.71451,0.77769 l -0.17451,0.14057 c -0.2199,-0.12267 -0.44838,-0.24269 -0.68203,-0.36323 -0.2372,-0.12086 -0.46438,-0.23768 -0.6893,-0.34853 -0.22347,-0.11258 -0.42269,-0.21651 -0.60787,-0.31137 l -7.56424,-3.77873 c -0.23591,-0.12228 -0.44661,-0.18048 -0.63486,-0.18048 -0.1863,0.001 -0.37696,0.0829 -0.56827,0.23768 l -1.41351,1.13915 c -0.21846,0.17629 -0.34078,0.37148 -0.36728,0.57716 -0.0272,0.21023 0.0498,0.42416 0.22347,0.64488 l 7.56198,9.37944 1.79177,-1.4447 -5.40197,-6.69946 c -0.19972,-0.24787 -0.40816,-0.49653 -0.62386,-0.73923 -0.21572,-0.24286 -0.44241,-0.47909 -0.68462,-0.70498 l 0.1745,-0.14058 c 0.16385,0.12823 0.34983,0.25466 0.56554,0.37746 0.2149,0.12306 0.42835,0.23946 0.64955,0.3495 0.2162,0.10936 0.41446,0.20601 0.5922,0.29117 l 7.7924,3.88279 c 0.23041,0.12681 0.43868,0.18679 0.6279,0.18274 0.1905,-0.001 0.38116,-0.0834 0.57539,-0.24011 l 1.44179,-1.16241 c 0.21893,-0.1758 0.33899,-0.36921 0.36145,-0.57523 0.0215,-0.20148 -0.0551,-0.41639 -0.23139,-0.63484 l -7.56246,-9.37945 z m 5.08818,-5.83162 c -0.63518,0.74473 -1.08647,1.44923 -1.35518,2.11154 -0.26661,0.6641 -0.339,1.31688 -0.21538,1.96353 0.12189,0.64859 0.45355,1.32464 0.99387,2.02364 0.53727,0.69835 1.29718,1.46053 2.27458,2.28007 0.97337,0.8239 1.8514,1.44178 2.63231,1.85543 0.78093,0.41349 1.50093,0.62419 2.16098,0.63436 0.66039,0.0146 1.29168,-0.16772 1.90116,-0.54274 0.6069,-0.37794 1.22479,-0.94089 1.85092,-1.69386 0.63986,-0.74924 1.09293,-1.45649 1.3618,-2.11929 0.26838,-0.66636 0.34255,-1.32141 0.21846,-1.97226 -0.12384,-0.64664 -0.45357,-1.31994 -0.99114,-2.0217 -0.54,-0.70029 -1.29766,-1.46069 -2.27458,-2.28006 -0.97336,-0.8239 -1.85365,-1.44373 -2.63231,-1.85544 -0.78318,-0.41089 -1.50464,-0.62385 -2.16324,-0.63613 -0.66006,-0.009 -1.29297,0.17401 -1.90488,0.55179 -0.6069,0.37745 -1.22656,0.94412 -1.85737,1.70112 z m 1.53082,1.28991 c 0.34934,-0.41914 0.6998,-0.71921 1.05803,-0.90195 0.35677,-0.18178 0.74375,-0.23898 1.15789,-0.1745 0.4172,0.0614 0.88708,0.25383 1.41028,0.57264 0.52432,0.31556 1.12669,0.76201 1.80906,1.34063 0.68671,0.57475 1.22849,1.09278 1.62873,1.55634 0.40266,0.46116 0.67153,0.89178 0.80306,1.29201 0.13362,0.39813 0.14283,0.78916 0.0251,1.17113 -0.12034,0.38441 -0.35677,0.78061 -0.71078,1.19555 -0.34482,0.41444 -0.69529,0.71498 -1.04931,0.89305 -0.35677,0.18097 -0.74118,0.2359 -1.15659,0.17176 -0.41447,-0.064 -0.88434,-0.25643 -1.40737,-0.57522 -0.52499,-0.31558 -1.12687,-0.76219 -1.80971,-1.34112 -0.68607,-0.57426 -1.2285,-1.09229 -1.62873,-1.55587 -0.40169,-0.46131 -0.67106,-0.89176 -0.80484,-1.28974 -0.1333,-0.39861 -0.14429,-0.7869 -0.0265,-1.16855 0.11582,-0.37923 0.35176,-0.77575 0.70175,-1.18616"
       inkscape:connector-curvature="0" />
  </g>
</svg>
