<svg xmlns="http://www.w3.org/2000/svg" xmlns:xlink="http://www.w3.org/1999/xlink" width="210" height="210"><style>.style0{ stop-color: #dcdcdc; stop-opacity: 1; } .style1{ stop-color: #f1f1f1; stop-opacity: 1; } .style2{ fill: url(#linearGradient5360); fill-rule: evenodd; } .style20{ fill: #231f20; } .style21{ } .style22{ fill: #231f20; fill-rule: nonzero; } .style3{ fill: #ffffff; fill-rule: evenodd; stroke: #ec008c; stroke-width: 0.9160018; stroke-miterlimit: 22.92558479; } .style4{ fill: #f15e4a; fill-rule: evenodd; } .style5{ fill: none; stroke: #ffffff; stroke-width: 5.80989981; stroke-linecap: round; stroke-linejoin: round; stroke-miterlimit: 22.92558479; } .style6{ fill: #0c0d0c; fill-rule: evenodd; }</style><defs id="defs4473"><linearGradient id="linearGradient5362"><stop offset="0" id="stop5364" class="style0"/><stop offset="1" id="stop5366" class="style1"/></linearGradient><linearGradient xlink:href="#linearGradient5362" id="linearGradient5360" x1="342.43" y1="382.49" x2="340.92" y2="354.2" gradientUnits="userSpaceOnUse" gradientTransform="matrix(1.293 0 0 1.293 -94.992 -128.528)"/></defs><g id="layer1"><path id="path3577" d="M105.2-.083c57.9 0 104.86 46.96 104.86 104.86s-46.96 104.86-104.86 104.86S.34 162.677.34 104.777 47.3-.083 105.2-.083z" class="style2"/><path id="path3579" d="M134.18 84.858h17.37v9.97h-17.37v-9.97z" class="style3"/><path id="path3581" d="M190.8 94.288c.38 3.31.58 6.68.58 10.1 0 14.88-3.69 28.88-10.18 41.14H29.25c-6.49-12.26-10.18-26.26-10.18-41.14 0-3.42.2-6.78.58-10.1h171.14z" class="style4"/><g id="g3583"><path id="path3585" d="M73.23 65.207c0-3.507 1.666-10.165 4.69-10.165h.262c2.622 0 5.777 2.868 8.6 2.868.61 0 1.304-.337 1.304-1.043 0-2.98-1.542-5.44-3.703-7.5-1.608-1.53-3.91-2.404-6.983-2.404-10.41 0-12.544 5.142-13.874 14.014-1.254 8.384-.016 17.257 2.107 24.338.56 1.862.825 3.8 1.38 5.658 1.02 3.437.77 2.253.488 5.517-.347 4.002-.526 9.073-.526 13.287 0 6.038.277 7.803-1.824 11.99-1.532 3.05-5.213 5.288-5.213 8.6v.782c0 1.167 1.075 4.528 1.308 6.51.256 2.166.473 4.35.826 6.733.29 1.94.522 4.567 1.603 5.95.662.848 3.49 2.7 4.86 2.7h.52c1.7 0 4.17-.912 4.17-2.606 0-.837-4.17-3.09-4.17-9.905 0-2.237 3.35-5.734 5.474-5.734 1.162 0 2.096 3.655 2.503 4.795.484 1.363 2.086 3.318 3.036 4.263 2.546 2.525 3.882 5.8 8.536 5.8h1.303c1.613 0 4.43-.338 4.43-1.826 0-1.46-9.122-6.82-9.122-10.425 0-1.776 4.458-8.862 6.256-8.862h3.387c5.197 0 9.524.282 14.6.255 5.035-.022 8.02 1.526 8.087 6.51.076 5.604.934 8.09 2.08 12.517 1.096 4.23.19 8.867 5.728 8.867h4.952c1.553 0 2.607-.532 2.607-2.085 0-2.938-4.69-3.584-4.69-4.692v-9.904c0-2.247.466-3.784 1.823-4.69 1.575 2.975 2.726 7.694 3.948 11.17.82 2.35 2.933 9.16 5.697 9.16h3.388c1.77 0 4.312-.3 4.312-2.086v-.52c0-2.966-3.584-1.272-5.392-5.56-.69-3.628-1.31-7.45-1.787-11.643v-.78c0-6.913 1.94-10.15 4.258-14.77 2.818-5.615 3.42-7.315 4.8-14.227 1.335-6.712 4.083-7.62 5.837-13.19.858-2.72 3.61-12.565 3.61-15.415 0-.364-.352-.522-.78-.522-2.803 0-4.025 4.17-8.602 4.17-2.508 0-8.714-.37-10.262-1.205-1.66-.9-5.386-4.528-6.94-4.528-.836 0-1.167 1.293-1.042 2.086l.52 4.952c0 5.625-2.47 13.292-7.818 13.292-5.566 0-8.965-2.307-13.19-3.752-4.414-1.51-9.442-1.72-15.22-1.72h-4.17L80 90.55c-3.49-6.658-6.776-14.78-6.776-24.82v-.523zm78.05 23.252s.988 4.115-3.893 4.022c-.06-1.504.52-2.557 1.21-3.15-.005.658.223 1.69.99 2.184.13-.63.173-1.12.178-1.504.006-.565-.168-1.07-.412-1.08.966-.468 1.927-.468 1.927-.468zm-14.053-.273s-.602 4.616 4.724 3.948c-.096-1.488-.753-2.47-1.465-3.057-.092.695-.38 1.59-1.124 2.025-.124-.586-.178-1.037-.19-1.417-.015-.554.094-1.108.31-1.178-1.145-.435-2.253-.32-2.253-.32z" class="style5"/></g><path id="path3587" d="M73.34 64.938c0-3.51 1.67-10.17 4.69-10.17h.26c2.62 0 5.78 2.87 8.6 2.87.61 0 1.3-.34 1.3-1.04 0-2.98-1.54-5.44-3.71-7.5-1.61-1.53-3.91-2.4-6.98-2.4-10.41 0-12.55 5.14-13.87 14.02-1.26 8.39-.01 17.26 2.11 24.34.56 1.86.83 3.8 1.38 5.66 1.02 3.44.77 2.26.49 5.52-.35 4-.53 9.08-.53 13.29 0 6.04.28 7.81-1.82 11.99-1.53 3.05-5.21 5.29-5.21 8.6v.78c0 1.17 1.08 4.53 1.31 6.51.26 2.17.47 4.35.83 6.73.29 1.94.52 4.57 1.6 5.96.66.85 3.49 2.7 4.86 2.7h.52c1.7 0 4.17-.91 4.17-2.61 0-.83-4.17-3.09-4.17-9.91 0-2.24 3.35-5.74 5.47-5.74 1.16 0 2.1 3.65 2.5 4.8.49 1.37 2.09 3.32 3.04 4.26 2.55 2.52 3.88 5.8 8.54 5.8h1.3c1.61 0 4.43-.34 4.43-1.82 0-1.46-9.12-6.82-9.12-10.43 0-1.78 4.46-8.86 6.26-8.86h3.39c5.2 0 9.53.28 14.6.26 5.03-.02 8.02 1.53 8.09 6.51.08 5.6.93 8.09 2.08 12.52 1.1 4.23.19 8.87 5.73 8.87h4.95c1.56 0 2.61-.53 2.61-2.09 0-2.94-4.69-3.58-4.69-4.69v-9.91c0-2.25.47-3.78 1.82-4.69 1.57 2.97 2.73 7.7 3.95 11.17.82 2.35 2.93 9.16 5.7 9.16h3.39c1.77 0 4.31-.3 4.31-2.09v-.52c0-2.96-3.59-1.27-5.39-5.56-.69-3.63-1.31-7.45-1.79-11.65v-.78c0-6.91 1.94-10.15 4.26-14.77 2.82-5.62 3.42-7.32 4.8-14.23 1.34-6.71 4.08-7.62 5.84-13.19.86-2.72 3.61-12.57 3.61-15.42 0-.37-.35-.52-.78-.52-2.8 0-4.03 4.17-8.6 4.17-2.51 0-8.72-.37-10.26-1.21-1.66-.9-5.39-4.53-6.94-4.53-.84 0-1.17 1.29-1.04 2.09l.52 4.95c0 5.62-2.47 13.3-7.82 13.3-5.57 0-8.97-2.31-13.19-3.75-4.42-1.51-9.44-1.72-15.22-1.72h-4.17l-11.21.32c-3.49-6.66-6.78-14.78-6.78-24.82v-.52zm78.07 23.26s.99 4.12-3.89 4.02c-.06-1.51.52-2.56 1.21-3.15 0 .66.22 1.69.99 2.18.13-.63.17-1.12.18-1.51 0-.56-.17-1.07-.41-1.08.97-.47 1.93-.47 1.93-.47zm-14.06-.27s-.6 4.62 4.73 3.95c-.1-1.49-.75-2.47-1.47-3.06-.09.69-.38 1.59-1.12 2.03-.12-.58-.18-1.04-.19-1.42-.02-.56.09-1.11.31-1.18-1.15-.44-2.25-.32-2.25-.32" class="style6"/><g id="text3589" class="style7"><path d="M118.445 29.192l-.014 1.838c-1.1.206-2.482.2-4.135-.003-1.988-.245-3.32-.93-4.013-2.056-.676-1.125-.86-2.938-.55-5.472.312-2.535.93-4.25 1.874-5.176.928-.928 2.403-1.268 4.392-1.024 1.476.182 2.725.48 3.766.886l-.48 1.797c-1.112-.233-2.295-.41-3.562-.566-1.107-.136-1.902.108-2.386.732-.484.625-.846 1.85-1.07 3.663-.223 1.827-.166 3.088.152 3.81.318.724 1.03 1.153 2.138 1.29 1.636.2 2.927.294 3.89.282z" id="path4416" class="style8"/></g><g id="text3593" class="style9"><path d="M103.338 28.45l.138 1.966-9.382.658-.137-1.967 5.918-9.86-6.464.454-.137-1.965 9.124-.64.138 1.967-5.92 9.86z" id="path4413" class="style8"/></g><g id="text3597" class="style10"><path d="M133.405 21.22l-3.46 12.925-2.342-.627 1.584-5.917-5.12-1.37-1.584 5.917-2.342-.627 3.462-12.926 2.342.627-1.36 5.075 5.12 1.37 1.36-5.072z" id="path4410" class="style8"/></g><g id="text3601" class="style11"><path d="M89.18 28.26l-4.852 1.03-.288 3.926-2.433.518 1.27-13.284c.024-.434.26-.716.72-.813l2.306-.49c.458-.098.786.047.988.45l6.583 11.613-2.418.515zm-.987-1.84l-2.27-4.223c-.317-.643-.492-1.002-.522-1.06l-.504.106-.062 1.186-.35 4.796z" id="path4407" class="style8"/></g><g id="text3605" class="style12"><path d="M142.523 24.7c1.89.84 3 1.882 3.337 3.11.33 1.245-.037 3.062-1.107 5.468s-2.183 3.91-3.322 4.48c-1.15.603-2.668.475-4.557-.366-1.875-.834-2.97-1.87-3.3-3.113-.338-1.23.036-3.062 1.107-5.468 1.07-2.406 2.182-3.91 3.32-4.482 1.146-.586 2.657-.444 4.53.39zm-.84 1.888c-1.034-.46-1.866-.46-2.532.005-.665.464-1.376 1.545-2.132 3.242-.755 1.698-1.082 2.95-.98 3.754.1.805.67 1.43 1.69 1.884 1.032.46 1.893.472 2.56.008.666-.464 1.377-1.545 2.132-3.242.756-1.698 1.083-2.95.982-3.755-.1-.805-.672-1.43-1.72-1.897z" id="path4404" class="style8"/></g><g id="text3609" class="style12"><path d="M76.826 21.394l1.71 13.14c.066.464-.108.79-.536.98l-2.095.933c-.178.08-.38.098-.575.06-.2-.05-.354-.16-.498-.325L66.2 26.124l2.287-1.018 6.58 8.07c.096.135.254.33.465.607.212.277.36.494.465.607l.443-.197c-.097-.417-.19-.906-.265-1.51l-1.622-10.277z" id="path4401" class="style8"/></g><g id="text3613" class="style13"><path d="M158.96 34.86l-9.935 8.764c-.35.315-.716.353-1.113.105l-1.946-1.217c-.164-.103-.294-.26-.37-.442-.07-.194-.066-.382-.01-.595l3.51-12.78 2.122 1.327-3.01 9.97c-.057.153-.13.392-.242.723-.11.33-.207.575-.243.724l.41.256c.292-.313.645-.664 1.104-1.063l7.598-7.1z" id="path4398" class="style8"/></g><g id="text3617" class="style13"><path d="M64.83 36.203l-2.734.718c-.993.24-1.817.202-2.498-.096-.69-.31-1.29-.907-1.83-1.77-.77-1.233-.997-2.235-.67-2.992.327-.757 1.22-1.582 2.66-2.48 1.397-.874 2.653-1.487 3.802-1.843l.778 1.55c-1.272.738-2.412 1.413-3.413 2.038-.753.47-1.217.856-1.37 1.16-.152.305-.066.747.293 1.323.29.466.6.75.9.83.297.08.737.053 1.324-.105l2.612-.698c1.034-.265 1.885-.245 2.575.067.675.32 1.29.908 1.83 1.77.778 1.248 1.008 2.285.684 3.078-.337.8-1.25 1.657-2.757 2.6-1.247.778-2.548 1.44-3.908 1.946l-.806-1.593c1.944-1.157 3.167-1.883 3.646-2.183.754-.47 1.21-.87 1.345-1.202.135-.332.04-.787-.32-1.363-.298-.48-.595-.77-.884-.837-.283-.09-.7-.057-1.252.097z" id="path4395" class="style8"/></g><g id="text3621" class="style14"><path d="M160.387 48.576l-3.8-3.19-3.274 2.19-1.907-1.6 11.258-7.178c.357-.25.725-.236 1.084.065l1.807 1.517c.36.302.447.65.253 1.057l-5.104 12.342-1.894-1.59zm.842-1.91l1.933-4.39c.31-.647.486-1.006.515-1.066l-.396-.333-.973.682-4 2.677z" id="path4392" class="style8"/></g><g id="text3625" class="style15"><path d="M175.303 54.32l-2.603-3.215-8.792 7.12-1.536-1.897 8.792-7.12-2.573-3.177 1.61-1.3 6.71 8.29z" id="path4389" class="style8"/></g><g id="text3629" class="style16"><path d="M45.257 39.93l-1.26-.26.71-4.596 2.09.44zm7.92 5.63l3.087 3.308-1.773 1.653-3.107-3.332-9.232-3.456 1.87-1.74 5.332 2.14c.214.088.708.357 1.504.808l.118-.11c-.394-.826-.64-1.35-.712-1.546l-1.763-5.47 1.843-1.72z" id="path4386" class="style8"/></g><g id="text3633" class="style17"><path d="M173.02 68.577l-1.538 1.02c-.674-.974-1.707-2.634-3.09-5.026-.435-.755-.587-1.47-.454-2.143.155-.668.558-1.2 1.235-1.61l7.247-4.185c.694-.382 1.355-.465 2.005-.243.65.22 1.193.71 1.63 1.464 1.373 2.378 2.317 4.11 2.81 5.187l-1.666.832-2.62-4.532c-.177-.308-.368-.478-.595-.515-.212-.045-.505.03-.868.24l-2.03 1.172 2.748 4.757-1.61.93-2.746-4.757-2.59 1.494c-.363.212-.574.427-.64.634-.068.206-.023.48.147.772z" id="path4383" class="style8"/></g><g id="text3637" class="style15"><path d="M42.587 54.616l-.834 1.03c.387.19.747.438 1.11.733l3.67 2.97-1.527 1.883-10.4-8.42 1.526-1.885 3.065 2.48c.44.357.81.72 1.124 1.078l.835-1.03-1.962-6.31L40.85 45.1l1.928 6.198c.134.4.202.83.22 1.32l.05.042c.573-.118 1.098-.15 1.552-.095l6.79.757-1.708 2.11z" id="path4380" class="style8"/></g><g id="text3641" class="style18"><path d="M185.654 68.842l-9.296 4.337c-.38.177-.596.366-.667.596-.077.214-.02.527.157.907l1.967 4.217-1.657.88c-.635-1.094-1.445-2.677-2.408-4.742-.848-1.815-.437-3.112 1.246-3.897l9.648-4.5z" id="path4377" class="style8"/></g><g id="text3645" class="style17"><path d="M37.204 63.612l-2.077 1.916c-.765.678-1.51 1.03-2.252 1.088-.755.048-1.566-.196-2.447-.705-1.26-.726-1.93-1.505-1.995-2.327-.067-.822.335-1.97 1.184-3.44.824-1.426 1.645-2.556 2.492-3.41l1.415 1.004c-.777 1.25-1.467 2.38-2.057 3.4-.445.77-.674 1.33-.665 1.67.008.34.29.69.88 1.03.474.274.88.38 1.182.31.3-.07.676-.3 1.12-.714l1.965-1.85c.79-.72 1.55-1.102 2.306-1.15.748-.035 1.566.195 2.448.704 1.273.735 1.962 1.544 2.05 2.396.09.874-.313 2.06-1.202 3.597-.735 1.274-1.575 2.468-2.537 3.554l-1.46-1.03c1.175-1.933 1.914-3.148 2.196-3.638.446-.77.66-1.336.624-1.692-.036-.357-.333-.715-.92-1.055-.49-.283-.888-.402-1.175-.325-.294.055-.648.28-1.076.667z" id="path4374" class="style8"/></g><g id="text3649" class="style19"><path d="M195.048 81.063c.165.574.105 1.13-.167 1.644-.283.535-.707.875-1.297 1.044-.59.17-1.13.106-1.638-.202-.504-.292-.848-.73-1.017-1.322-.17-.59-.114-1.16.16-1.675.27-.514.706-.874 1.28-1.04.59-.168 1.13-.104 1.654.2.52.288.852.747 1.02 1.337zm-1.04.298c-.08-.28-.245-.5-.485-.633s-.515-.155-.825-.066c-.295.085-.517.25-.635.485-.133.24-.143.495-.06.79.08.28.237.47.46.608.24.132.5.16.795.074.31-.09.533-.253.666-.493s.16-.5.083-.763zm-2.113 5.883l-7.827 2.243c-1.926.552-3.395.586-4.396.083-.992-.473-1.752-1.6-2.26-3.37-.525-1.833-.495-3.253.084-4.225.578-.973 1.834-1.752 3.76-2.304l7.827-2.242.667 2.33L181.923 82c-1.227.352-2.028.783-2.398 1.31-.375.51-.412 1.26-.136 2.223.275.963.695 1.548 1.283 1.783.588.235 1.496.176 2.723-.175l7.827-2.242z" id="path4371" class="style8"/></g><g id="text3653" class="style20"><path d="M36.492 71.44l1.75.586c-.345 1.115-1.038 2.96-2.067 5.507-.333.824-.803 1.384-1.41 1.68-.613.31-1.28.318-2.02.037l-7.758-3.134c-.728-.31-1.2-.78-1.427-1.43-.225-.648-.175-1.377.152-2.186 1.028-2.547 1.81-4.356 2.358-5.407l1.68.8-1.96 4.854c-.133.33-.15.584-.04.786.097.195.336.38.726.536l2.172.876 2.057-5.093 1.722.696-2.057 5.092 2.772 1.12c.39.157.69.19.893.116.205-.074.39-.277.518-.592z" id="path4368" class="style8"/></g><g id="text3657" class="style21"><path d="M17.873 78.343l1.823 3.373-.226.976-3.12 2.23-.783-.91 2.11-2.166.035-.157-.95-2.84zm14.593 2.645l1.826.207c.075 1.112-.077 2.486-.452 4.107-.45 1.952-1.272 3.205-2.465 3.775-1.19.554-3.01.547-5.498-.028-2.487-.576-4.128-1.37-4.95-2.406-.825-1.02-1.008-2.522-.557-4.473.335-1.447.764-2.658 1.276-3.65l1.743.634c-.35 1.08-.65 2.238-.938 3.48-.252 1.087-.092 1.904.478 2.45.57.546 1.75 1.035 3.53 1.446 1.793.415 3.053.49 3.805.25.752-.24 1.253-.904 1.505-1.99.37-1.605.6-2.88.688-3.837z" id="path4365" class="style8"/></g><path id="path3661" d="M42.94 163.647l-4.16-4.98 11.06-.95 1.46-1.22-5.66-6.78-1.46 1.22 4.01 4.8-11.06.95-1.46 1.22 5.82 6.96 1.46-1.22zm13.58-2.4c-.73-.65-1.43-1.11-2.09-1.39-.66-.28-1.31-.36-1.96-.25-.65.11-1.33.43-2.04.96s-1.48 1.27-2.32 2.23c-.84.96-1.47 1.83-1.9 2.6-.43.77-.65 1.49-.67 2.15-.03.66.15 1.29.51 1.91.37.61.92 1.24 1.66 1.88.74.65 1.44 1.12 2.09 1.4.66.28 1.32.37 1.97.25.65-.11 1.33-.43 2.04-.96s1.48-1.27 2.32-2.24c.84-.96 1.48-1.83 1.9-2.6.42-.78.65-1.49.67-2.15.02-.66-.15-1.3-.52-1.91-.37-.61-.92-1.24-1.67-1.89zm-1.32 1.51c.41.36.71.71.88 1.07.17.36.23.75.15 1.16-.07.42-.27.88-.6 1.4-.33.52-.78 1.11-1.37 1.79-.59.68-1.11 1.21-1.58 1.6-.47.39-.9.66-1.31.78-.4.13-.79.13-1.17.01-.38-.13-.77-.37-1.18-.73-.41-.35-.7-.71-.87-1.07-.17-.36-.22-.75-.15-1.16.07-.41.27-.88.6-1.4.32-.52.78-1.11 1.37-1.79.59-.68 1.11-1.21 1.58-1.6.47-.39.9-.66 1.3-.78.4-.13.79-.13 1.17-.01.38.12.77.37 1.17.72m10.97 13.82l.52 6.88 2.31 1.23-.52-6.6c-.01-.23-.06-.47-.12-.71s-.15-.49-.25-.74l.03-.05c.25-.05.46-.11.65-.18.19-.07.38-.16.57-.27l5.52-2.95-2.24-1.2-5.61 3-1.12-.6c.16-.19.3-.39.44-.6.14-.21.26-.43.39-.66l1.79-3.35-2.06-1.1-6.08 11.39 2.06 1.1 2.14-4.01c.1-.18.19-.37.27-.57.08-.2.15-.4.21-.61l1.12.6zm15.1-1.35c-.92-.33-1.74-.5-2.46-.51-.72-.01-1.35.16-1.91.5-.56.35-1.07.9-1.53 1.65-.46.75-.9 1.73-1.31 2.94-.42 1.2-.68 2.24-.79 3.12-.11.88-.04 1.62.18 2.24.22.62.62 1.15 1.19 1.58.57.43 1.32.81 2.24 1.12.93.33 1.75.5 2.47.51.72.01 1.36-.15 1.92-.5.56-.35 1.07-.9 1.53-1.65.46-.75.9-1.73 1.31-2.94.42-1.2.68-2.25.79-3.12.1-.88.04-1.63-.18-2.25-.23-.62-.63-1.14-1.2-1.58-.57-.43-1.32-.81-2.25-1.12zm-.66 1.89c.52.18.92.4 1.22.66.3.27.49.61.58 1.02.09.41.08.92-.03 1.52s-.31 1.33-.6 2.17c-.29.85-.58 1.54-.87 2.08-.29.54-.59.95-.92 1.21-.32.27-.69.42-1.08.44-.4.03-.86-.05-1.37-.24-.51-.17-.92-.39-1.21-.66-.3-.27-.49-.61-.57-1.02-.09-.41-.08-.92.03-1.52s.31-1.33.6-2.17c.29-.85.58-1.54.87-2.08.29-.54.59-.95.92-1.21.32-.27.68-.42 1.08-.44.4-.03.85.05 1.36.23m16.98-1.22l-.52-1.05-2.72 1.01-.15-.03-2.15-1.97-.86.78 2.24 2.94.95.19 3.19-1.87zm-2.08 14.16c-.37-.02-.73-.06-1.1-.1-.37-.04-.76-.1-1.19-.18-.42-.07-.9-.16-1.44-.27-.52-.1-.94-.26-1.27-.48-.32-.22-.55-.52-.7-.91-.14-.39-.2-.88-.18-1.48.03-.6.12-1.34.3-2.2.17-.86.35-1.58.56-2.15.21-.57.45-1 .72-1.31.28-.31.61-.5.99-.58.38-.08.83-.07 1.35.04.38.07.72.14 1.01.21.3.06.58.13.83.19.26.06.51.12.76.19s.51.14.79.22l.56-1.7c-.26-.13-.51-.24-.76-.34-.25-.1-.5-.2-.78-.28-.27-.09-.57-.17-.9-.25-.33-.08-.7-.16-1.12-.24-.95-.19-1.77-.23-2.48-.13s-1.31.37-1.82.81c-.5.43-.93 1.05-1.28 1.85s-.64 1.81-.87 3.01c-.24 1.2-.35 2.24-.33 3.11.02.87.18 1.61.48 2.2.3.59.76 1.07 1.38 1.43.61.36 1.39.64 2.34.82.57.11 1.09.2 1.54.26.45.06.88.09 1.27.09.39.01.78-.01 1.17-.06l.14-1.77zm7.97-3.49l3.49 5.95 2.62.1-3.36-5.7c-.11-.2-.26-.4-.42-.59-.16-.19-.35-.37-.55-.55v-.06c.2-.15.37-.3.5-.45.14-.14.27-.31.39-.49l3.67-5.07-2.54-.09-3.73 5.16-1.27-.05c.06-.24.1-.48.13-.73s.05-.5.06-.76l.14-3.8-2.34-.09-.48 12.9 2.34.09.17-4.54c.01-.21.01-.41-.01-.63-.01-.21-.04-.43-.08-.65l1.27.05zm14.95.62l3.02-9.05-2.41.33-1.65 5.29c-.07.26-.14.53-.18.81-.04.28-.08.55-.13.8l-.15.02c-.1-.23-.22-.48-.34-.74-.12-.26-.25-.5-.39-.73l-3.02-4.64-2.45.34 5.37 7.85.6 4.35 2.32-.32-.6-4.32zm17.47-7.22c.47-.24.81-.53 1.02-.86.22-.33.31-.73.3-1.17-.01-.45-.14-.96-.37-1.53-.24-.61-.52-1.1-.83-1.44-.31-.35-.67-.57-1.09-.68-.41-.1-.9-.1-1.47.01-.56.11-1.22.32-1.97.63-.47.19-.9.36-1.29.52-.38.16-.73.31-1.06.45-.32.14-.63.28-.93.42-.3.14-.6.29-.91.45l4.81 11.98c.37-.11.73-.23 1.08-.35.35-.12.71-.25 1.08-.38.37-.14.77-.29 1.21-.47.44-.17.93-.36 1.47-.58.7-.28 1.28-.56 1.73-.86.46-.3.8-.63 1.02-.99.22-.36.32-.77.31-1.24-.01-.46-.14-1-.39-1.62-.25-.64-.55-1.16-.89-1.55-.33-.4-.73-.65-1.19-.77-.46-.12-1-.09-1.62.1l-.03-.07zm-4.45.92l-1.35-3.37 2-.8c.53-.22.96-.34 1.31-.38.35-.03.64.04.87.23.23.19.43.5.6.94.18.45.27.83.25 1.13-.03.3-.16.55-.4.77-.24.21-.61.41-1.09.6l-2.17.87zm2.15 5.36l-1.52-3.78 2.2-.89c.41-.16.77-.27 1.08-.32.31-.05.58-.03.8.05.23.08.43.24.61.47.18.23.35.55.51.95.15.36.23.67.25.93.02.26-.02.49-.13.68-.11.19-.29.37-.54.53-.25.16-.58.32-.98.48l-2.28.9zm20.06-7.9l-3.02-2.93c-.29-.31-.58-.53-.88-.66-.3-.14-.58-.21-.85-.22-.27-.01-.51.02-.72.08l-.05-.08c.47-.36.8-.74.97-1.15.17-.41.21-.85.12-1.33-.09-.47-.3-.99-.62-1.55-.36-.64-.74-1.12-1.13-1.46-.39-.34-.82-.54-1.27-.61-.46-.07-.96-.01-1.52.17-.55.18-1.17.46-1.86.86-.48.27-.9.51-1.26.73-.37.21-.7.41-1 .6-.3.19-.59.37-.86.55-.28.18-.57.39-.86.6l6.43 11.19 2.01-1.16-2.58-4.49 2.02-1.14c.34-.2.65-.28.95-.24.3.04.61.2.92.5l2.89 2.96 2.16-1.24zm-9.89-2.49l-2.02-3.52 2.01-1.16c.47-.28.87-.44 1.2-.5.33-.06.63.01.89.19s.52.51.78.97c.27.46.41.84.44 1.17.03.33-.06.62-.27.89-.22.26-.56.53-1.03.81l-2.01 1.15zm13.61-16.79l-1.78 1.43 5.24 6.5c.22.27.44.53.67.79.23.26.47.52.71.78l-.17.14c-.22-.12-.45-.24-.68-.36-.24-.12-.46-.24-.69-.35-.22-.11-.42-.22-.61-.31l-7.56-3.78c-.24-.12-.45-.18-.63-.18-.19 0-.38.08-.57.24l-1.41 1.14c-.22.18-.34.37-.37.58-.03.21.05.42.22.64l7.56 9.38 1.79-1.44-5.4-6.7c-.2-.25-.41-.5-.62-.74-.22-.24-.44-.48-.68-.7l.17-.14c.16.13.35.25.57.38.21.12.43.24.65.35.22.11.41.21.59.29l7.79 3.88c.23.13.44.19.63.18.19 0 .38-.08.58-.24l1.44-1.16c.22-.18.34-.37.36-.58.02-.2-.06-.42-.23-.63l-7.56-9.38zm5.09-5.83c-.64.74-1.09 1.45-1.36 2.11-.27.66-.34 1.32-.22 1.96.12.65.45 1.32.99 2.02s1.3 1.46 2.27 2.28c.97.82 1.85 1.44 2.63 1.86.78.41 1.5.62 2.16.63.66.01 1.29-.17 1.9-.54.61-.38 1.22-.94 1.85-1.69.64-.75 1.09-1.46 1.36-2.12.27-.67.34-1.32.22-1.97-.12-.65-.45-1.32-.99-2.02s-1.3-1.46-2.27-2.28c-.97-.82-1.85-1.44-2.63-1.86-.78-.41-1.5-.62-2.16-.64-.66-.01-1.29.17-1.9.55-.61.38-1.23.94-1.86 1.7zm1.53 1.29c.35-.42.7-.72 1.06-.9.36-.18.74-.24 1.16-.17.42.06.89.25 1.41.57.52.32 1.13.76 1.81 1.34.69.57 1.23 1.09 1.63 1.56.4.46.67.89.8 1.29s.14.79.03 1.17c-.12.38-.36.78-.71 1.2-.34.41-.7.71-1.05.89-.36.18-.74.24-1.16.17-.41-.06-.88-.26-1.41-.58-.52-.32-1.13-.76-1.81-1.34-.69-.57-1.23-1.09-1.63-1.56-.4-.46-.67-.89-.8-1.29s-.14-.79-.03-1.17c.12-.38.35-.78.7-1.19" class="style22"/></g></svg>